<mxfile host="app.diagrams.net" modified="2023-05-29T08:14:00.818Z" agent="Mozilla/5.0 (Macintosh; Intel Mac OS X 10_15_7) AppleWebKit/537.36 (KHTML, like Gecko) Chrome/113.0.0.0 Safari/537.36" version="21.3.3" etag="RzeG07xTg0pU1DzcyjX2" type="github">
  <diagram name="第 1 页" id="4awN2KMfDIGe8U4MozJ7">
    <mxGraphModel>
      <root>
        <mxCell id="0" />
        <mxCell id="1" parent="0" />
      </root>
    </mxGraphModel>
  </diagram>
</mxfile>
